<svg width="183" height="29" viewBox="0 0 183 29" fill="none" xmlns="http://www.w3.org/2000/svg">
<path d="M9.192 19.64C9.192 21.4107 8.872 22.872 8.232 24.024C7.61333 25.176 6.78133 26.072 5.736 26.712C4.712 27.3733 3.48533 27.9387 2.056 28.408L0.648 24.696C1.58667 24.3333 2.29067 23.9173 2.76 23.448C3.22933 22.9787 3.53867 22.4347 3.688 21.816C3.85867 21.1973 3.944 20.408 3.944 19.448V0.823999H9.192V19.64ZM20.5323 14.52H18.4843V23H13.2363V0.823999H20.5003C23.5296 0.823999 25.8016 1.37867 27.3162 2.488C28.8523 3.59733 29.6203 5.29333 29.6203 7.576C29.6203 9.00533 29.2789 10.2 28.5963 11.16C27.9136 12.0987 26.8363 12.8987 25.3643 13.56L30.9963 23H25.0763L20.5323 14.52ZM18.4843 10.904H20.6923C21.8656 10.904 22.7403 10.6373 23.3163 10.104C23.9136 9.57067 24.2123 8.728 24.2123 7.576C24.2123 6.50933 23.8923 5.73067 23.2523 5.24C22.6336 4.74933 21.6736 4.504 20.3723 4.504H18.4843V10.904ZM46.756 0.823999C50.2333 0.823999 53.0173 1.61333 55.108 3.192C57.22 4.74933 58.276 7.61867 58.276 11.8C58.276 15.9173 57.252 18.8187 55.204 20.504C53.156 22.168 50.5 23 47.236 23H40.58V0.823999H46.756ZM45.828 4.632V19.192H47.556C49.284 19.192 50.596 18.6587 51.492 17.592C52.388 16.504 52.836 14.5733 52.836 11.8C52.836 9.90133 52.612 8.42933 52.164 7.384C51.716 6.33867 51.108 5.624 50.34 5.24C49.572 4.83467 48.6227 4.632 47.492 4.632H45.828ZM75.0238 0.823999L74.4798 4.568H66.6718V9.88H73.4878V13.56H66.6718V19.224H75.0238V23H61.4238V0.823999H75.0238ZM85.091 0.279999C86.755 0.279999 88.195 0.514666 89.411 0.983999C90.6483 1.45333 91.7683 2.168 92.771 3.128L90.339 5.976C88.8243 4.73867 87.203 4.12 85.475 4.12C84.5577 4.12 83.8323 4.312 83.299 4.696C82.7657 5.05867 82.499 5.592 82.499 6.296C82.499 6.78667 82.6163 7.192 82.851 7.512C83.0857 7.81067 83.5017 8.09867 84.099 8.376C84.6963 8.65333 85.5923 8.984 86.787 9.368C89.0483 10.0933 90.7123 10.9893 91.779 12.056C92.8457 13.1013 93.379 14.5947 93.379 16.536C93.379 17.9227 93.027 19.1493 92.323 20.216C91.619 21.2613 90.6057 22.0827 89.283 22.68C87.9603 23.256 86.3923 23.544 84.579 23.544C82.7657 23.544 81.155 23.256 79.747 22.68C78.3603 22.104 77.1657 21.336 76.163 20.376L78.819 17.464C79.6723 18.1893 80.547 18.7333 81.443 19.096C82.3603 19.4587 83.3523 19.64 84.419 19.64C85.507 19.64 86.3603 19.4053 86.979 18.936C87.619 18.4453 87.939 17.7733 87.939 16.92C87.939 16.3653 87.8217 15.9067 87.587 15.544C87.3523 15.16 86.947 14.8187 86.371 14.52C85.795 14.2213 84.963 13.9013 83.875 13.56C81.4217 12.8133 79.6723 11.896 78.627 10.808C77.603 9.72 77.091 8.344 77.091 6.68C77.091 5.4 77.4323 4.28 78.115 3.32C78.7977 2.33867 79.747 1.592 80.963 1.08C82.179 0.546665 83.555 0.279999 85.091 0.279999ZM101.516 0.823999V23H96.2675V0.823999H101.516ZM115.243 0.279999C118.101 0.279999 120.565 1.18667 122.635 3L119.979 5.784C119.189 5.18667 118.453 4.76 117.771 4.504C117.109 4.22667 116.341 4.088 115.467 4.088C113.824 4.088 112.512 4.73867 111.531 6.04C110.549 7.32 110.059 9.272 110.059 11.896C110.059 14.7333 110.432 16.7493 111.179 17.944C111.925 19.1173 113.088 19.704 114.667 19.704C115.776 19.704 116.779 19.4587 117.675 18.968V13.944H114.795L114.283 10.232H122.763V21.208C121.611 21.9547 120.341 22.5307 118.955 22.936C117.568 23.3413 116.181 23.544 114.795 23.544C111.424 23.544 108.885 22.5627 107.179 20.6C105.472 18.616 104.618 15.7147 104.618 11.896C104.618 9.464 105.077 7.37333 105.995 5.624C106.933 3.87467 108.203 2.552 109.803 1.656C111.424 0.738665 113.237 0.279999 115.243 0.279999ZM143.356 23H136.668L130.268 5.816C130.481 7.50133 130.641 8.99467 130.748 10.296C130.876 11.576 130.94 13.1013 130.94 14.872V23H126.268V0.823999H132.796L139.356 18.04C138.886 15.1173 138.652 12.3653 138.652 9.784V0.823999H143.356V23ZM161.086 0.823999L160.542 4.568H152.734V9.88H159.55V13.56H152.734V19.224H161.086V23H147.486V0.823999H161.086ZM171.626 14.52H169.578V23H164.33V0.823999H171.594C174.623 0.823999 176.895 1.37867 178.41 2.488C179.946 3.59733 180.714 5.29333 180.714 7.576C180.714 9.00533 180.373 10.2 179.69 11.16C179.007 12.0987 177.93 12.8987 176.458 13.56L182.09 23H176.17L171.626 14.52ZM169.578 10.904H171.786C172.959 10.904 173.834 10.6373 174.41 10.104C175.007 9.57067 175.306 8.728 175.306 7.576C175.306 6.50933 174.986 5.73067 174.346 5.24C173.727 4.74933 172.767 4.504 171.466 4.504H169.578V10.904Z" fill="#131313"/>
</svg>
